<svg id="Layer_1" data-name="Layer 1" xmlns="http://www.w3.org/2000/svg" viewBox="0 0 720 720"><defs><style>.cls-1{fill:#1a1a1a;}.cls-2,.cls-3,.cls-4{fill:#801654;}.cls-3{font-size:242.17px;}.cls-3,.cls-4{font-family:Giflika-Regular, Giflika;}.cls-4{font-size:252.62px;}.cls-5{fill:none;}</style></defs><path class="cls-1" d="M51.73,441.72H49.88V424.29H61.83v1.59H51.73Zm-.2-9h9.21v1.59H51.53Z"/><path class="cls-1" d="M101.82,441.72l8-17.43h1.82l8,17.43h-1.94l-7.33-16.36h.75l-7.32,16.36Zm3.14-4.66.55-1.49h10.13l.55,1.49Z"/><path class="cls-1" d="M167.11,441.87a10.86,10.86,0,0,1-3.72-.64,7,7,0,0,1-2.75-1.63l.72-1.42a7.32,7.32,0,0,0,2.48,1.51,8.83,8.83,0,0,0,3.27.61,7.44,7.44,0,0,0,2.68-.41,3.28,3.28,0,0,0,1.52-1.11,2.65,2.65,0,0,0,.48-1.54,2.33,2.33,0,0,0-.58-1.65,4.08,4.08,0,0,0-1.53-1,18.11,18.11,0,0,0-2.1-.64c-.76-.18-1.52-.37-2.29-.58a10.33,10.33,0,0,1-2.1-.83,4.3,4.3,0,0,1-1.54-1.39,3.91,3.91,0,0,1-.59-2.25,4.35,4.35,0,0,1,.69-2.38,4.72,4.72,0,0,1,2.1-1.74,8.68,8.68,0,0,1,3.64-.66,10.76,10.76,0,0,1,2.91.41,8.39,8.39,0,0,1,2.49,1.13l-.62,1.47a8.12,8.12,0,0,0-2.38-1.09,8.81,8.81,0,0,0-2.43-.35,6.88,6.88,0,0,0-2.59.42,3.33,3.33,0,0,0-1.51,1.13,2.82,2.82,0,0,0-.48,1.61,2.28,2.28,0,0,0,.58,1.64,3.84,3.84,0,0,0,1.55,1,19.44,19.44,0,0,0,2.1.63c.77.18,1.52.38,2.28.6a10.24,10.24,0,0,1,2.09.83A4.26,4.26,0,0,1,173,434.9a3.8,3.8,0,0,1,.58,2.21,4.2,4.2,0,0,1-.7,2.35,4.77,4.77,0,0,1-2.13,1.75A8.76,8.76,0,0,1,167.11,441.87Z"/><path class="cls-1" d="M219.3,441.72h-1.84V424.29h1.84Zm11.08-8H219.1v-1.62h11.28Zm-.17-9.39H232v17.43h-1.82Z"/><path class="cls-1" d="M277.54,441.72V424.29h1.85v17.43Z"/><path class="cls-1" d="M332.52,441.87a10,10,0,0,1-3.65-.66,8.51,8.51,0,0,1-2.91-1.87,8.67,8.67,0,0,1-1.92-2.81,9.48,9.48,0,0,1,0-7,8.67,8.67,0,0,1,1.92-2.81,8.57,8.57,0,0,1,2.9-1.87,10.42,10.42,0,0,1,7.3,0,8.83,8.83,0,0,1,2.9,1.85,8.61,8.61,0,0,1,1.92,2.82,9.53,9.53,0,0,1,0,7.07,8.46,8.46,0,0,1-1.92,2.81,8.69,8.69,0,0,1-2.9,1.86A9.82,9.82,0,0,1,332.52,441.87Zm0-1.65a7.6,7.6,0,0,0,2.9-.53,6.87,6.87,0,0,0,2.32-1.52,7.13,7.13,0,0,0,1.53-2.29,7.79,7.79,0,0,0,0-5.75,7,7,0,0,0-1.53-2.29,6.73,6.73,0,0,0-2.32-1.52,7.6,7.6,0,0,0-2.9-.54,7.76,7.76,0,0,0-2.91.54,6.72,6.72,0,0,0-2.34,1.52,6.93,6.93,0,0,0-1.55,2.29,7.9,7.9,0,0,0,0,5.74,7,7,0,0,0,1.55,2.3,6.86,6.86,0,0,0,2.34,1.52A7.76,7.76,0,0,0,332.52,440.22Z"/><path class="cls-1" d="M385.63,441.72V424.29h1.52l12,15.14h-.8V424.29h1.82v17.43h-1.52l-12-15.14h.8v15.14Z"/><path class="cls-1" d="M493.92,441.72h-1.84V424.29H504v1.59H493.92Zm-.19-9h9.21v1.59h-9.21Z"/><path class="cls-1" d="M547.68,441.72V424.29h1.85v17.43Z"/><path class="cls-1" d="M595,441.72V424.29h6.53a9.42,9.42,0,0,1,3.81.71,5.44,5.44,0,0,1,2.45,2,5.84,5.84,0,0,1,.86,3.22,5.77,5.77,0,0,1-.86,3.18,5.44,5.44,0,0,1-2.45,2,9.42,9.42,0,0,1-3.81.71h-5.51l.83-.85v6.38Zm1.85-6.23-.83-.87h5.46a6,6,0,0,0,4-1.14,4.5,4.5,0,0,0,0-6.45,6,6,0,0,0-4-1.15h-5.46l.83-.87ZM607,441.72l-4.49-6.33h2l4.5,6.33Z"/><path class="cls-1" d="M652.89,441.72V424.29h1.51l8,13.59h-.79l7.89-13.59H671v17.43h-1.77V427.05h.42l-7.27,12.45h-.87l-7.32-12.45h.47v14.67Z"/><path class="cls-2" d="M223.92,371.58c7.14-17.1,13.22-33,20.42-48.41,3.91-8.34,4-15.32.21-23.84-11.1-25-21.22-50.44-31.71-75.71-2.45-5.91-2.17-6.48,4.17-6.38,19.84.3,15-2.91,22.2,14.19,7.08,16.91,14.08,33.85,21.61,51.95,4.57-10.55,8.71-20.08,12.82-29.62,5.16-12,10.8-23.5,22.38-30.9,12.28-7.85,30.07-7.56,40.77,1,11.58,9.31,15.74,25.28,9.69,39.77Q319,329.57,291.11,395.31c-.7,1.67-.95,4.08-3.22,4.15s-2.61-2.36-3.31-4Q269.94,360.73,255.34,326c-1.29-3.05-2.7-6-4.59-10.25-4.63,11.05-8.75,20.84-12.82,30.64-6.7,16.1-13.34,32.22-20.09,48.3-.81,1.94-1.1,4.89-4,4.74-2.44-.12-2.84-2.76-3.61-4.57q-22.41-52.8-44.74-105.64Q151.89,257.11,138.29,225c-3.08-7.29-2.76-7.89,5.25-7.74,18.5.33,14-3.1,21,13.46,18.44,43.49,36.65,87.09,55,130.65C220.76,364.28,222,367.18,223.92,371.58Zm73.5-1.39c2-.63,2.09-2.13,2.57-3.26,10-23.45,20.05-46.85,29.76-70.41,5.13-12.45,11.69-24.42,14.85-37.57,2.66-11.08,1.4-21.9-7.59-30.1-9.92-9-21.57-11.06-33.86-5.66-11.94,5.25-19.43,15-24.38,26.81-4.65,11.07-9,22.26-13.64,33.32a11.54,11.54,0,0,0,.11,9.7c4.57,10.68,8.85,21.48,13.32,32.21C284.81,340.24,291.14,355.22,297.42,370.19Z"/><path class="cls-2" d="M146,235.05c-.86,1.89-.58,3.51-5.11,3.51H93.5L82.15,261.48c40.56,7.28,54.74,13.21,70.9,34.51,7.37,9.71,9.92,20,9.92,34.25,0,25.89-8.5,42.6-27.79,56.09-13.32,9.16-28.92,13.21-48.2,13.21-21.27,0-36-6.47-36-16.72,0-6.74,4.82-10.24,12.76-10.24,6.52,0,11.91,1.34,21,8.35,7.94,6.21,14.46,8.63,20.13,8.63,19.85,0,38.28-22.38,38.28-45.57,0-17.26-6.23-30.74-19-40.45C110.8,293.3,91,284.67,63.72,284.67c-2.55,0-3.4-.54-3.4-2.16a5.32,5.32,0,0,1,.28-1.35l30.91-63.9H140"/><text class="cls-3" transform="translate(345.35 395.21)">O</text><text class="cls-4" transform="translate(537.61 399.81)">F</text><rect class="cls-5" x="3.05" y="-0.42" width="720" height="720"/></svg>